<svg class="i-concepts-concurrency-safety" width="304" height="80" viewBox="0 0 304 80" fill="none" xmlns="http://www.w3.org/2000/svg">

<!-- Data -->
<circle class="data" cx="151" cy="62" r="3"/>

<!-- My Writes -->
<path   class="write flash-1" d="M141.004 60.9629L149.836 67.6549L152.164 56.3451L141.407 59.004L141.004 60.9629ZM48.7983 41.9795L141.983 61.1646L142.387 59.2057L49.2017 40.0205L48.7983 41.9795Z"/>
<circle class="write flash-1" cx="151" cy="62" r="3"/>
<path   class="write flash-7" d="M141.004 60.9629L149.836 67.6549L152.164 56.3451L141.407 59.004L141.004 60.9629ZM48.7983 41.9795L141.983 61.1646L142.387 59.2057L49.2017 40.0205L48.7983 41.9795Z"/>
<circle class="write flash-7" cx="151" cy="62" r="3"/>
<path   class="write flash-8" d="M141.004 60.9629L149.836 67.6549L152.164 56.3451L141.407 59.004L141.004 60.9629ZM48.7983 41.9795L141.983 61.1646L142.387 59.2057L49.2017 40.0205L48.7983 41.9795Z"/>
<circle class="write flash-8" cx="151" cy="62" r="3"/>

<!-- Other Writes -->
<path   class="write flash-3" d="M160.593 59.004L149.836 56.3451L152.164 67.6549L160.996 60.9629L160.593 59.004ZM252.798 40.0205L159.613 59.2057L160.017 61.1646L253.202 41.9795L252.798 40.0205Z"/>
<circle class="write flash-3" cx="151" cy="62" r="3"/>
<path   class="write flash-5" d="M160.593 59.004L149.836 56.3451L152.164 67.6549L160.996 60.9629L160.593 59.004ZM252.798 40.0205L159.613 59.2057L160.017 61.1646L253.202 41.9795L252.798 40.0205Z"/>
<circle class="write flash-5" cx="151" cy="62" r="3"/>
<path   class="write flash-8" d="M160.593 59.004L149.836 56.3451L152.164 67.6549L160.996 60.9629L160.593 59.004ZM252.798 40.0205L159.613 59.2057L160.017 61.1646L253.202 41.9795L252.798 40.0205Z"/>
<circle class="write flash-8" cx="151" cy="62" r="3"/>

<!-- Threads -->
<g transform="translate(29 4)">{% include i-shared/gears.svg %}</g>
<g transform="translate(230 4)">{% include i-shared/gears.svg %}</g>

<!-- Conflicts -->
<g class="conflict">
  <path class="flash-8" d="M151 44L153.352 55.5392L162.57 48.2112L156.954 58.5623L168.727 58.8743L157.771 63.1939L166.588 71L155.419 67.2669L157.156 78.9145L151 68.8754L144.844 78.9145L146.581 67.2669L135.412 71L144.229 63.1939L133.273 58.8743L145.046 58.5623L139.43 48.2112L148.648 55.5392L151 44Z"/>
</g>

</svg>
