<svg class="i-shared-gears" width="44" height="44" viewBox="0 0 44 44" fill="none" xmlns="http://www.w3.org/2000/svg">
<g class="gear-1">
<circle class="wheel" cx="17" cy="16" r="12"/>
<path class="teeth" fill-rule="evenodd" clip-rule="evenodd" d="M28.8986 17.5673C28.9655 17.0543 29 16.5312 29 16C29 15.4688 28.9655 14.9457 28.8986 14.4327L30.8818 14.174C30.9598 14.7725 31 15.3821 31 16C31 16.6179 30.9598 17.2275 30.8818 17.826L28.8986 17.5673ZM28.0894 11.4065L29.9369 10.6404C29.4645 9.50118 28.8465 8.43867 28.1066 7.47594L26.5208 8.69459C27.1553 9.52033 27.6849 10.431 28.0894 11.4065ZM24.3054 6.47921L25.5241 4.89337C24.5613 4.15354 23.4988 3.53554 22.3596 3.06311L21.5935 4.91057C22.569 5.31512 23.4797 5.84466 24.3054 6.47921ZM18.5673 4.10143L18.826 2.11823C18.2275 2.04016 17.6179 2 17 2C16.3821 2 15.7725 2.04016 15.174 2.11823L15.4327 4.10143C15.9457 4.03452 16.4688 4 17 4C17.5312 4 18.0543 4.03452 18.5673 4.10143ZM12.4065 4.91057L11.6404 3.06311C10.5012 3.53554 9.43867 4.15355 8.47594 4.89337L9.69459 6.47921C10.5203 5.84466 11.431 5.31512 12.4065 4.91057ZM7.47921 8.69459L5.89337 7.47594C5.15354 8.43867 4.53554 9.50119 4.06311 10.6404L5.91057 11.4065C6.31512 10.431 6.84466 9.52033 7.47921 8.69459ZM5.10143 14.4327C5.03452 14.9457 5 15.4688 5 16C5 16.5312 5.03452 17.0543 5.10143 17.5673L3.11823 17.826C3.04016 17.2275 3 16.6179 3 16C3 15.3821 3.04016 14.7725 3.11823 14.174L5.10143 14.4327ZM5.91057 20.5935L4.06311 21.3596C4.53554 22.4988 5.15355 23.5613 5.89337 24.5241L7.47921 23.3054C6.84466 22.4797 6.31512 21.569 5.91057 20.5935ZM9.69459 25.5208L8.47594 27.1066C9.43867 27.8465 10.5012 28.4645 11.6404 28.9369L12.4065 27.0894C11.431 26.6849 10.5203 26.1553 9.69459 25.5208ZM15.4327 27.8986L15.174 29.8818C15.7725 29.9598 16.3821 30 17 30C17.6179 30 18.2275 29.9598 18.826 29.8818L18.5673 27.8986C18.0543 27.9655 17.5312 28 17 28C16.4688 28 15.9457 27.9655 15.4327 27.8986ZM21.5935 27.0894L22.3596 28.9369C23.4988 28.4645 24.5613 27.8465 25.5241 27.1066L24.3054 25.5208C23.4797 26.1553 22.569 26.6849 21.5935 27.0894ZM26.5208 23.3054L28.1066 24.5241C28.8465 23.5613 29.4645 22.4988 29.9369 21.3596L28.0894 20.5935C27.6849 21.569 27.1553 22.4797 26.5208 23.3054Z"/>
<circle class="hole" cx="17" cy="16" r="4"/>
</g>
<g class="gear-2">
<circle class="wheel" cx="32" cy="31" r="6.5"/>
<path class="teeth" fill-rule="evenodd" clip-rule="evenodd" d="M38.3763 32.2686C38.4574 31.8583 38.5 31.4341 38.5 31C38.5 30.5659 38.4574 30.1417 38.3763 29.7314L40.3383 29.3433C40.4446 29.8807 40.5 30.4349 40.5 31C40.5 31.5651 40.4446 32.1193 40.3383 32.6567L38.3763 32.2686ZM37.4052 27.3885L39.0671 26.2759C38.4471 25.3498 37.6502 24.5529 36.7241 23.9329L35.6115 25.5948C36.3203 26.0694 36.9306 26.6797 37.4052 27.3885ZM33.2686 24.6237L33.6567 22.6617C33.1193 22.5554 32.5651 22.5 32 22.5C31.4349 22.5 30.8807 22.5554 30.3433 22.6617L30.7314 24.6237C31.1417 24.5426 31.5659 24.5 32 24.5C32.4341 24.5 32.8583 24.5426 33.2686 24.6237ZM28.3885 25.5948L27.2759 23.9329C26.3498 24.5529 25.5529 25.3498 24.9329 26.2759L26.5948 27.3885C27.0694 26.6797 27.6797 26.0694 28.3885 25.5948ZM25.6237 29.7314C25.5426 30.1417 25.5 30.5659 25.5 31C25.5 31.4341 25.5426 31.8583 25.6237 32.2686L23.6617 32.6567C23.5554 32.1193 23.5 31.5651 23.5 31C23.5 30.4349 23.5554 29.8807 23.6617 29.3433L25.6237 29.7314ZM26.5948 34.6115L24.9329 35.7241C25.5529 36.6502 26.3498 37.4471 27.2759 38.0671L28.3885 36.4052C27.6797 35.9306 27.0694 35.3203 26.5948 34.6115ZM30.7314 37.3763L30.3433 39.3383C30.8807 39.4446 31.4349 39.5 32 39.5C32.5651 39.5 33.1193 39.4446 33.6567 39.3383L33.2686 37.3763C32.8583 37.4574 32.4341 37.5 32 37.5C31.5659 37.5 31.1417 37.4574 30.7314 37.3763ZM35.6115 36.4052L36.7241 38.0671C37.6502 37.4471 38.4471 36.6502 39.0671 35.7241L37.4052 34.6115C36.9306 35.3203 36.3203 35.9306 35.6115 36.4052Z"/>
<circle class="hole" cx="32" cy="31" r="2"/>
</g>
<g class="gear-3">
<circle class="wheel" cx="21.5005" cy="37.5005" r="3"/>
<path class="teeth" fill-rule="evenodd" clip-rule="evenodd" d="M23.4944 39.7824C23.783 39.5307 24.0279 39.2192 24.2087 38.8549C24.3895 38.4905 24.4894 38.107 24.5152 37.725L26.5107 37.8599C26.4674 38.4997 26.3 39.1398 26.0003 39.7438C25.7006 40.3478 25.2921 40.8684 24.8088 41.2898L23.4944 39.7824ZM23.7824 35.5484L25.2898 34.234C24.8684 33.7507 24.3478 33.3422 23.7438 33.0425C23.1398 32.7428 22.4997 32.5753 21.8599 32.5321L21.725 34.5275C22.107 34.5533 22.4905 34.6532 22.8549 34.834C23.2192 35.0148 23.5307 35.2598 23.7824 35.5484ZM19.5484 35.2604C19.2598 35.5121 19.0148 35.8235 18.834 36.1879C18.6532 36.5523 18.5533 36.9357 18.5275 37.3178L16.5321 37.1829C16.5753 36.5431 16.7428 35.9029 17.0425 35.2989C17.3422 34.6949 17.7507 34.1744 18.234 33.753L19.5484 35.2604ZM19.2604 39.4944L17.753 40.8088C18.1744 41.2921 18.6949 41.7006 19.2989 42.0003C19.9029 42.3 20.5431 42.4674 21.1829 42.5107L21.3178 40.5153C20.9357 40.4894 20.5523 40.3895 20.1879 40.2087C19.8235 40.0279 19.5121 39.783 19.2604 39.4944Z"/>
<circle class="hole" cx="21.5005" cy="37.5005" r="1"/>
</g>
</svg>
